<svg width="30" height="27" viewBox="0 0 30 27" fill="none" xmlns="http://www.w3.org/2000/svg">
<path d="M4.28468 0.553688C3.14831 0.553688 2.05849 1.0995 1.25495 2.07104C0.451421 3.04259 0 4.36029 0 5.73426V8.32454H29.9928V5.73426C29.9928 4.36029 29.5414 3.04259 28.7378 2.07104C27.9343 1.0995 26.8445 0.553688 25.7081 0.553688H4.28468Z" fill="#808080"/>
<path d="M0 21.2759V10.9148H29.9928V21.2759C29.9928 22.6499 29.5414 23.9676 28.7378 24.9391C27.9343 25.9107 26.8445 26.4565 25.7081 26.4565H4.28468C3.14831 26.4565 2.05849 25.9107 1.25495 24.9391C0.451421 23.9676 0 22.6499 0 21.2759ZM20.3522 18.6856C20.0682 18.6856 19.7957 18.8221 19.5948 19.065C19.3939 19.3079 19.2811 19.6373 19.2811 19.9808C19.2811 20.3243 19.3939 20.6537 19.5948 20.8966C19.7957 21.1395 20.0682 21.2759 20.3522 21.2759H24.6369C24.921 21.2759 25.1935 21.1395 25.3944 20.8966C25.5952 20.6537 25.7081 20.3243 25.7081 19.9808C25.7081 19.6373 25.5952 19.3079 25.3944 19.065C25.1935 18.8221 24.921 18.6856 24.6369 18.6856H20.3522Z" fill="#808080"/>
</svg>
