<svg width="26" height="27" viewBox="0 0 26 27" fill="none" xmlns="http://www.w3.org/2000/svg">
<path d="M25.9029 13.8585C25.9161 20.9943 20.0967 26.8293 12.9609 26.8344C9.87888 26.8365 7.04794 25.7622 4.82327 23.9667C4.24479 23.4998 4.20155 22.6329 4.72723 22.1072L5.31563 21.5188C5.76522 21.0692 6.48299 21.02 6.98109 21.4152C8.62013 22.7158 10.6944 23.4921 12.9515 23.4921C18.2629 23.4921 22.5606 19.1935 22.5606 13.883C22.5606 8.57155 18.262 4.27381 12.9515 4.27381C10.4022 4.27381 8.08688 5.26444 6.36773 6.88144L9.01828 9.532C9.5447 10.0584 9.17187 10.9584 8.42748 10.9584H0.835578C0.374078 10.9584 0 10.5844 0 10.1229V2.53096C0 1.78656 0.900021 1.41374 1.42644 1.9401L4.00482 4.51848C6.32997 2.29642 9.4813 0.931503 12.9515 0.931503C20.0962 0.931503 25.8897 6.71683 25.9029 13.8585ZM16.455 17.9728L16.968 17.3133C17.393 16.7668 17.2946 15.9794 16.7482 15.5544L14.6226 13.9012V8.4517C14.6226 7.75948 14.0615 7.19834 13.3692 7.19834H12.5337C11.8414 7.19834 11.2803 7.75948 11.2803 8.4517V15.5359L14.6962 18.1927C15.2426 18.6177 16.03 18.5193 16.455 17.9728Z" fill="#808080"/>
</svg>
