<svg width="40" height="40" viewBox="0 0 40 40" fill="none" xmlns="http://www.w3.org/2000/svg">
<path d="M21.8148 2.73144L23.395 4.31159L2.546 25.1606C0.904042 26.8025 0 28.9854 0 31.3073C0 33.6292 0.904042 35.812 2.546 37.4559C4.18989 39.096 6.37272 40 8.69271 40C11.0127 40 13.1955 39.096 14.8394 37.454L35.6884 16.605L37.2686 18.1852L40 15.4537L24.5463 0L21.8148 2.73144ZM27.9616 18.869L23.3196 14.2251L20.5882 16.9566L25.2301 21.6004L22.4987 24.3338L20.5863 22.4214L17.8548 25.1528L19.7672 27.0652L17.0339 29.7986L12.3919 25.1548L9.65857 27.8843L14.3005 32.5281L12.1061 34.7226C10.2806 36.5461 7.10291 36.5461 5.27744 34.7226C4.36567 33.8089 3.86343 32.5977 3.86343 31.3073C3.86343 30.0169 4.36567 28.8057 5.27744 27.892L26.1264 7.04303L32.955 13.8716L27.9616 18.869Z" fill="black"/>
</svg>
